<svg width="27" height="27" viewBox="0 0 27 27" fill="none" xmlns="http://www.w3.org/2000/svg">
<path fill-rule="evenodd" clip-rule="evenodd" d="M14.0964 4.3211C13.7669 3.9916 13.2327 3.9916 12.9032 4.3211L5.06904 12.1552C4.54653 12.6777 4.27843 13.4025 4.33511 14.1392L4.93995 22.0022C4.97377 22.4418 5.34033 22.7812 5.78122 22.7812H10.9685V18.5625C10.9685 17.1645 12.1018 16.0312 13.4998 16.0312C14.8978 16.0312 16.031 17.1645 16.031 18.5625V22.7812H21.2184C21.6592 22.7812 22.0258 22.4418 22.0596 22.0022L22.6645 14.1392C22.7211 13.4025 22.453 12.6777 21.9305 12.1552L14.0964 4.3211ZM11.7099 3.12786C12.6984 2.13935 14.3011 2.13935 15.2897 3.12786L23.1238 10.962C23.9946 11.8328 24.4415 13.0407 24.347 14.2687L23.7422 22.1316C23.6407 23.4504 22.541 24.4687 21.2184 24.4687H16.031C15.0991 24.4687 14.3435 23.7132 14.3435 22.7812V18.5625C14.3435 18.0965 13.9658 17.7187 13.4998 17.7187C13.0338 17.7187 12.656 18.0965 12.656 18.5625V22.7812C12.656 23.7132 11.9005 24.4687 10.9685 24.4687H5.78122C4.45855 24.4687 3.35887 23.4504 3.25742 22.1316L2.65258 14.2687C2.55812 13.0407 3.00495 11.8328 3.87579 10.962L11.7099 3.12786Z" fill="white"/>
</svg>
